/* XPM */
static char *qjoypad[] = {
/* columns rows colors chars-per-pixel */
"32 32 156 2 ",
"   c #333930",
".  c #3D423A",
"X  c #453B6A",
"o  c #423571",
"O  c #48327A",
"+  c #4B5246",
"@  c #585D46",
"#  c #52554C",
"$  c #525C48",
"%  c #5E6156",
"&  c #5D6B57",
"*  c #626C54",
"=  c #61615E",
"-  c #676B5F",
";  c #6A745E",
":  c #6E785E",
">  c #575468",
",  c #5F5576",
"<  c #635A6F",
"1  c #646663",
"2  c #666964",
"3  c #696C64",
"4  c #676C68",
"5  c #6D6E68",
"6  c #6D7167",
"7  c #6C726D",
"8  c #717760",
"9  c #73746E",
"0  c #75796E",
"q  c #676B7D",
"w  c #6E6D7B",
"e  c #6D7672",
"r  c #757771",
"t  c #737A74",
"y  c #7B7E75",
"u  c #747C7A",
"i  c #7B7E7A",
"p  c #7C836D",
"a  c #7D8474",
"s  c #7C8875",
"d  c #768179",
"f  c #7C837B",
"g  c #818677",
"h  c #82857B",
"j  c #82897A",
"k  c #8C8F7E",
"l  c #8E907E",
"z  c #3C2982",
"x  c #3F288D",
"c  c #442C83",
"v  c #412690",
"b  c #514880",
"n  c #594D8E",
"m  c #5E5484",
"M  c #69668D",
"N  c #7C7781",
"B  c #757980",
"V  c #817A8A",
"C  c #7E8880",
"Z  c #838784",
"A  c #838B84",
"S  c #888E83",
"D  c #858A8B",
"F  c #89888C",
"G  c #8B9383",
"H  c #8D928A",
"J  c #939484",
"K  c #93978A",
"L  c #939A8B",
"P  c #9A9D8D",
"I  c #8E8B95",
"U  c #968C91",
"Y  c #968A9D",
"T  c #919691",
"R  c #989792",
"E  c #959F92",
"W  c #9A9E90",
"Q  c #9A929D",
"!  c #A09E8C",
"~  c #96A191",
"^  c #9CA394",
"/  c #97A699",
"(  c #9BA69B",
")  c #9CAA9F",
"_  c #A9A48E",
"`  c #A5A596",
"'  c #A8A592",
"]  c #A4AA9C",
"[  c #ABAE9E",
"{  c #B4AD96",
"}  c #B3AD98",
"|  c #AEB09E",
" . c #B3B09A",
".. c #B9B39C",
"X. c #9A8DA6",
"o. c #988FA8",
"O. c #9891A7",
"+. c #9E9EA1",
"@. c #A0A8A0",
"#. c #AAAFA0",
"$. c #A5B0A4",
"%. c #ADB3A4",
"&. c #ADB6A9",
"*. c #AFB9AC",
"=. c #B3B5A3",
"-. c #B8B6A1",
";. c #B4B9A7",
":. c #BDB9A2",
">. c #B1B6A9",
",. c #B4BBAC",
"<. c #BABDAC",
"1. c #B5BEB2",
"2. c #C5BDA6",
"3. c #C8BEA7",
"4. c #C4BEAB",
"5. c #C1BFB5",
"6. c #BEC2AF",
"7. c #B6C0B5",
"8. c #BCC3B4",
"9. c #BDC5B9",
"0. c #C2C2AF",
"q. c #CBC2AB",
"w. c #C3C4B3",
"e. c #CBC8B4",
"r. c #C2C7BB",
"t. c #C5CABD",
"y. c #CACABD",
"u. c #D3CCBD",
"i. c #C5CDC4",
"p. c #CACDC3",
"a. c #C7CFCA",
"s. c #CCD2CB",
"d. c #DAD5C3",
"f. c #D3D7CC",
"g. c #DBD7CB",
"h. c #D0D6D0",
"j. c #D5DBD5",
"k. c #DEDED6",
"l. c #E0D9C9",
"z. c #E1DED5",
"x. c #DCE1DC",
"c. c #E4E1D7",
"v. c #E2E5DD",
"b. c #DFE5E1",
"n. c #E2E5E2",
"m. c #E8E6E1",
"M. c #E5E9E4",
"N. c #E9EAE6",
"B. c #EBEDEA",
"V. c #ECF0ED",
"C. c #F4F3ED",
"Z. c #F2F4F2",
"A. c #F9F7F1",
"S. c #F7F8F6",
"D. c #F9F8F6",
"F. c #FFFFFF",
/* pixels */
"F.F.F.F.F.F.F.F.F.F.F.F.B.s.F.F.F.F.F.F.F.F.F.F.F.F.F.F.F.F.F.F.",
"F.F.F.F.F.F.F.F.F.F.F.F.j.7.F.F.F.F.F.F.F.F.F.F.F.F.F.F.F.F.F.F.",
"F.F.F.F.F.F.F.F.F.F.F.F.M.) D.F.F.F.F.F.F.F.F.F.F.F.F.F.F.F.F.F.",
"F.F.F.F.F.F.F.F.F.F.F.F.F.*.a.F.F.F.F.F.F.F.F.F.F.F.F.F.F.F.F.F.",
"F.F.F.F.F.F.F.F.F.F.F.F.F.Z.( b.F.F.F.F.F.F.F.F.F.F.F.F.F.F.F.F.",
"F.F.F.F.F.F.F.F.F.F.F.F.F.F.x./ B.F.F.F.F.F.F.F.F.F.F.F.F.F.F.F.",
"F.F.F.F.F.F.F.F.F.F.F.F.F.F.F.j./ B.F.F.F.F.F.F.F.F.F.F.F.F.F.F.",
"F.F.F.F.F.F.F.F.F.F.F.F.F.F.F.F.s.) D.F.F.F.F.F.F.F.F.F.F.F.F.F.",
"F.F.F.F.F.Z.M.b.M.V.D.F.F.F.F.D.F.*.i.F.F.F.F.F.F.F.F.F.F.F.F.F.",
"F.F.F.B.s.9.8.7.8.9.9.h.n.Z.F.F.F.h.$.F.F.F.F.F.F.F.F.F.F.F.F.F.",
"F.F.j.8.8.8.r.i.9.8.8.7.1.8.i.j.S.a.) F.F.F.F.F.F.F.F.F.F.F.F.F.",
"F.k.,.8.6.7.G s ) 8.7.6.8.1.,.&.1.&.&.B.D.F.F.F.F.F.F.F.F.F.F.F.",
"B.8.8.%.s s : $ ( 9.<.1.,.1.,.,.*.,.*.&.1.s.n.D.F.F.F.F.F.F.F.F.",
"f.8.8.L * * : ; a ;.<.,.,.,.>.,.*.%.&.&.&.%.%.*.a.M.D.F.F.F.F.F.",
"t.8.7.%.p & & @ - ,.,.,.;.,.%.>.%.%.%.*.] T A A A S @.s.S.F.F.F.",
"p.9.6.%.: @ p l ] 6.;.^ ^ %.%.%.%.%.%.H u t u u u t t i ) M.F.F.",
"f.t.w.;.P l <.8.<.W +   g 0.%.] $.$.S 9 t u f D I D u u A E M.F.",
"v.t.t.8.8.8.<.;.<.^ a ^ [ 3 . # #.L r i F T ( +.o.o.u u C u $.S.",
"A.g.e.9.6.6.<.;.=.;.<.-.` % 5 W #.y r Q X.I T R Y V 7 t e e C h.",
"F.A.d.e.w.0.<.4.<.-.%.| #.;.;.=.^ h h U Y N K J 9 6 t t e e t ,.",
"F.F.A.l.q..._ { 2.2.:.=.#.| [ | W i r r r r i i S S m n q u C / ",
"F.F.F.F.B.g.g.c.c.u.q.:.-.-.| #.` 9 9 7 9 w n M / A c x , 4 e E ",
"F.F.F.F.F.F.F.F.F.F.C.d.4...{ | ] y 9 9 9 m v O u ^ , o > 4 e $.",
"F.F.F.F.F.F.F.F.F.F.F.F.D.z.w.{ } J 5 H y < O X f S 0 2 4 4 j r.",
"F.F.F.F.F.F.F.F.F.F.F.F.F.F.F.v.u.-.y 9 5 3 = 2 3 = 2 4 1 y L N.",
"F.F.F.F.F.F.F.F.F.F.F.F.F.F.F.F.F.g._ r 2 1 2 1 1 1 1 1 y s 8.F.",
"F.F.F.F.F.F.F.F.F.F.F.F.F.F.F.F.F.D.u.! h 9 2 1 1 2 9 a a ] D.F.",
"F.F.F.F.F.F.F.F.F.F.F.F.F.F.F.F.F.F.D.y.! k j g g a p a &.S.F.F.",
"F.F.F.F.F.F.F.F.F.F.F.F.F.F.F.F.F.F.F.F.m.5.` J l K >.n.F.F.F.F.",
"F.F.F.F.F.F.F.F.F.F.F.F.F.F.F.F.F.F.F.F.F.F.F.D.D.F.F.F.F.F.F.F.",
"F.F.F.F.F.F.F.F.F.F.F.F.F.F.F.F.F.F.F.F.F.F.F.F.F.F.F.F.F.F.F.F.",
"F.F.F.F.F.F.F.F.F.F.F.F.F.F.F.F.F.F.F.F.F.F.F.F.F.F.F.F.F.F.F.F."
};
